# xmcd
#
# Track frame offsets: 
#        183
#        25378
#        55418
#        65235
#        78480
#        90408
#        114490
#        124380
#        141408
#        159550
#        169450
#        188013
#        214230
#        226968
#        240110
#        257205
#
# Disc length: 3713 seconds
#
# Revision: 2
# Processed by: cddbd v1.4PL0 Copyright (c) Steve Scherf et al.
# Submitted via: ExactAudioCopy v0.90b3
#
DISCID=e70e7f10
DTITLE=Amadeus Mozart - Salzburger Serenade CD1
DYEAR=1900
DGENRE=
TTITLE0=Kleine Nachtmusik Allegro
TTITLE1=Kleine Nachtmusik Romance
TTITLE2=Kleine Nachtmusik Menuetto
TTITLE3=Kleine Nachtmusik Rondo
TTITLE4=Salzburger Sinf. Nr 2 Andante
TTITLE5=Salzburger Sinf. Nr 2 Allegro di molto
TTITLE6=Salzburger Sinf. Nr 2 Allegro assai
TTITLE7=Salzburger Sinf. Nr 3 Allegro
TTITLE8=Salzburger Sinf. Nr 3 Andante
TTITLE9=Salzburger Sinf. Nr 3 Presto
TTITLE10=Salzburger Sinf. Nr 1 Allegro
TTITLE11=Salzburger Sinf. Nr 1 Andante
TTITLE12=Salzburger Sinf. Nr 1 Presto
TTITLE13=Serenata Notturna Marcia
TTITLE14=Serenata Notturna Menuetto
TTITLE15=Serenata Notturna Rondeau
EXTD=
EXTT0=
EXTT1=
EXTT2=
EXTT3=
EXTT4=
EXTT5=
EXTT6=
EXTT7=
EXTT8=
EXTT9=
EXTT10=
EXTT11=
EXTT12=
EXTT13=
EXTT14=
EXTT15=
PLAYORDER=
